<?xml version="1.0" encoding="UTF-8" standalone="no"?>
<!-- Created with Inkscape (http://www.inkscape.org/) -->

<svg
   width="200mm"
   height="200mm"
   viewBox="0 0 200 200"
   version="1.1"
   id="svg49581"
   inkscape:version="1.2.1 (9c6d41e410, 2022-07-14)"
   sodipodi:docname="token.svg"
   xmlns:inkscape="http://www.inkscape.org/namespaces/inkscape"
   xmlns:sodipodi="http://sodipodi.sourceforge.net/DTD/sodipodi-0.dtd"
   xmlns="http://www.w3.org/2000/svg"
   xmlns:svg="http://www.w3.org/2000/svg">
  <sodipodi:namedview
     id="namedview49583"
     pagecolor="#505050"
     bordercolor="#eeeeee"
     borderopacity="1"
     inkscape:showpageshadow="0"
     inkscape:pageopacity="0"
     inkscape:pagecheckerboard="0"
     inkscape:deskcolor="#505050"
     inkscape:document-units="mm"
     showgrid="false"
     inkscape:zoom="0.71624579"
     inkscape:cx="396.51193"
     inkscape:cy="450.26443"
     inkscape:window-width="1920"
     inkscape:window-height="991"
     inkscape:window-x="-9"
     inkscape:window-y="-9"
     inkscape:window-maximized="1"
     inkscape:current-layer="layer1" />
  <defs
     id="defs49578" />
  <g
     inkscape:label="Layer 1"
     inkscape:groupmode="layer"
     id="layer1">
    <circle
       cx="-99.738808"
       cy="99.738815"
       fill="#136f63"
       id="circle576-2-9-9-2-3-7-2"
       style="fill:#383961;fill-opacity:1;stroke-width:4.3287"
       r="99.560226"
       transform="scale(-1,1)" />
    <g
       id="ewECUF.tif-3-4-7"
       transform="matrix(0.69230847,0,0,0.69230847,-9.38968,-3.7133785)">
      <path
         class="cls-1"
         d="m 227.71,56.09 c 11.93,0.21 17.74,9.51 12.51,20.2 a 67.31,67.31 0 0 1 -9.29,13.45 c -4.63,5.51 -4.61,5.56 -0.28,11.78 20.65,29.64 21.15,61.58 10.85,94.75 -1.13,3.66 -2.72,7.25 -6.41,8.83 -5,2.16 -6.57,6.36 -7.73,11.06 a 43.11,43.11 0 0 1 -2.25,6.75 c -3.15,7.33 -7.49,13.19 -16.72,12.15 -2.34,-0.26 -3.51,1.09 -5.15,2.43 -7.77,6.37 -11.64,6.72 -20.24,1.45 -2.82,-1.73 -4.11,-1.78 -6.84,0.37 -9.49,7.44 -18.48,5.78 -25.15,-4.33 a 118,118 0 0 1 -7.44,-13.39 c -1.93,-4 -4.51,-5.76 -9,-4.45 a 45.14,45.14 0 0 1 -14.22,1.37 c -7.65,-0.25 -12.78,-3.29 -14.3,-10.7 -1.73,-8.42 -6.1,-14.1 -13,-18.61 a 35.07,35.07 0 0 1 -5.93,-5.64 C 76.38,172 71.03,158.13 71.69,142.56 c 0.43,-10.16 2.54,-20.37 7.79,-29.37 2.12,-3.64 0.94,-5.6 -1.64,-7.8 -2.08,-1.77 -4,-3.73 -6.14,-5.43 -5.61,-4.49 -11.09,-9.14 -15.68,-14.69 -4,-4.79 -5.57,-10.2 -2.78,-16.14 2.79,-5.94 8.32,-7.68 14.39,-8 a 28.91,28.91 0 0 1 5,0.56 114.13,114.13 0 0 1 34.2,10.21 c 5.76,2.71 10.21,2.67 16.12,0 19.78,-9.05 40.44,-12.09 61.49,-4.58 4.23,1.5 6.95,0.54 10.38,-1.41 9.55,-5.45 19.63,-9.47 30,-9.79 1.53,-0.03 2.18,-0.04 2.89,-0.03 z m -6.55,44.82 c -4.32,-5 -4.2,-5.31 -0.32,-10.36 2.91,-3.79 6.1,-7.36 9,-11.14 a 33.06,33.06 0 0 0 3.81,-6 c 3,-6.24 0,-11 -7,-10.66 -8.59,0.45 -16.58,3.53 -24.27,7.23 a 61.16,61.16 0 0 0 -8,4.55 c -2.75,1.86 -5,2.06 -8.36,0.75 -22,-8.45 -43.58,-5.63 -64.14,4.85 -5.22,2.66 -9,2.9 -14,0.14 C 98,74.83 87.05,72 76.17,69.23 a 33.36,33.36 0 0 0 -6.09,-0.62 c -4.21,-0.29 -8.53,-0.35 -10.61,4.21 -1.93,4.25 1.19,7.08 3.77,9.7 3.6,3.64 7.45,7 11.23,10.48 4,3.68 8,7.39 12.19,10.94 3.16,2.7 3.26,5.22 1.1,8.84 a 65.32,65.32 0 0 0 -7.68,21 c -3.69,19 1.64,35 15.65,48.15 a 37.56,37.56 0 0 0 6.27,5.25 c 5.77,3.41 8.21,8.69 9.75,14.88 2.2,8.87 4.4,9.91 13.82,9 21.15,-2 19.63,-2.39 27.77,14.09 a 41.71,41.71 0 0 0 4.27,7 c 5.08,6.62 11,6.26 15.83,-0.35 1.68,-2.3 0.8,-7.17 4.75,-6.74 2.11,0.23 4,3.44 5.79,5.49 5.65,6.5 13.56,6.76 17.2,-3.32 1.36,-3.78 1.95,-3.38 4.74,-0.78 3.62,3.38 6.45,2.61 9.62,-1.09 3.7,-4.3 4.64,-9.8 6.08,-15 1.12,-4.09 2.24,-7.55 6.76,-9.3 4,-1.55 5.81,-5.19 7.22,-9.34 a 108.77,108.77 0 0 0 5.5,-30.17 c -0.32,-24.41 -5.68,-44.03 -19.94,-60.64 z"
         id="path17014-9-3"
         style="fill:#ebefef" />
      <path
         class="cls-2"
         d="m 228.25,185.07 c -1.27,4.22 -2.65,8.42 -7.6,10 -4.28,1.39 -6.68,4.34 -6.87,9.08 a 22,22 0 0 1 -1.54,5.9 c -0.29,0.89 -0.81,2.08 -1.54,2.38 -1.9,0.76 -1.85,-1.27 -2.6,-2.22 -4.57,-5.78 -8.08,-5.49 -11,1.15 -1.5,3.4 -2.25,7.13 -3.58,10.62 -0.91,2.4 -2.54,3.08 -4.45,0.81 -2.85,-3.4 -5.53,-7 -8.5,-10.24 -4.94,-5.47 -8.41,-4.7 -10.87,2.34 -1,2.88 -1.57,5.93 -2.68,8.77 -0.87,2.21 -2.59,2.05 -3.7,0.19 -2.25,-3.81 -4.11,-7.85 -6.39,-11.63 -6,-9.92 -12.55,-12.88 -24,-11.14 -3,0.46 -6.09,0.73 -9.15,1 a 2.94,2.94 0 0 1 -3.53,-2.76 c -1.46,-9.44 -7.35,-15.39 -14.73,-21 -18.25,-14 -21.73,-33.43 -12.84,-54.84 1,-2.35 1.85,-4.19 5.11,-3.25 7.28,2.1 14.33,-0.11 20.65,-3.07 11.44,-5.36 15.31,-17.09 7.63,-24.9 -2.15,-2.19 -1.37,-3.5 0.82,-4.5 16.51,-7.51 33.38,-11.42 51.39,-5.53 32.73,10.71 53,39.38 53.22,78.29 a 80.78,80.78 0 0 1 -3.25,24.55 z m -63.81,-3.58 c 8.38,-3.32 12.42,-10 10.51,-18.54 -3.25,-14.62 -10.14,-27.34 -21.32,-37.46 -9,-8.17 -19.78,-7.88 -26.68,1.45 -9.31,12.57 -12.23,26.92 -9.15,42.39 1.11,5.56 4.36,8.95 9.68,10.73 7.14,2.39 14.38,4 21.94,3.56 a 34.31,34.31 0 0 0 15.02,-2.13 z m 59.44,-46 c -1.63,-4.8 -4.59,-8.59 -9.92,-9 -4.57,-0.36 -7.39,2.94 -9.61,6.49 -5.49,8.79 -8.85,18.24 -8.39,28.77 0.42,9.78 8,15.38 17.45,12.86 a 30.22,30.22 0 0 0 5.67,-2.19 c 5.24,-2.64 8.74,-6.39 7.84,-12.85 a 51.53,51.53 0 0 1 0,-6.07 c 0.38,-5.58 -0.92,-11.86 -3.04,-18 z m -23.11,50.09 c -3,-6.13 -9,-10.71 -12.91,-9.9 -3.91,0.81 -8,7.38 -8.52,13.86 a 16,16 0 0 0 0,4 c 0.52,3 3,4.28 5.95,3.38 2.95,-0.9 5.43,-4.52 9.21,-2.27 7.07,0.41 9.31,-2.89 6.27,-9.06 z"
         id="path17016-0-1"
         style="fill:#ffffff" />
      <path
         class="cls-2"
         d="m 199.21,82.2 a 10.19,10.19 0 0 0 1.4,1.63 c 2.19,1.61 4.42,3.15 6.65,4.7 a 3,3 0 0 0 4.47,-0.54 c 3.36,-4.25 6.64,-8.57 9.89,-12.9 0.31,-0.4 0.5,-1.37 0.27,-1.6 a 2.2,2.2 0 0 0 -1.79,-0.59 67.12,67.12 0 0 0 -19.58,8.1 11.83,11.83 0 0 0 -1.31,1.2 z"
         id="path17018-0-0"
         style="fill:#ffffff" />
    </g>
    <path
       class="cls-2"
       d="m 43.080386,51.428775 c 0.346125,-0.367422 1.350092,-0.374441 1.959265,-0.18723 a 124.11704,124.11704 0 0 1 18.373889,6.860922 49.714665,49.714665 0 0 1 8.383785,5.164465 c 2.769202,2.078138 2.644676,5.185522 -0.229362,6.999204 -2.769202,1.738811 -5.753065,3.212462 -9.996963,3.219259 a 1.2253858,1.2253858 0 0 1 -1.384481,-1.113951 1.1976934,1.1976934 0 0 1 0.08185,-0.566357 c 0,0 -0.879239,-5.219931 -2.942354,-6.653099 v 0 c -0.463834,-0.381459 -0.962317,-0.816735 -1.516246,-1.336275 -1.882963,-1.764552 -3.904631,-3.371597 -5.829265,-5.088407 -2.07673,-1.883909 -4.153782,-3.807818 -6.230733,-5.73947 -0.442758,-0.416552 -1.183917,-1.010984 -0.671174,-1.55158 z"
       id="path17021-5-3"
       style="fill:#ffffff;stroke-width:0.692304" />
  </g>
</svg>
