<svg id="Layer_1" data-name="Layer 1"
    xmlns="http://www.w3.org/2000/svg" viewBox="0 0 1290 264">
    <defs>
        <style>.cls-1{fill:#136f63;}</style>
    </defs>
    <path class="cls-1" d="M396.66,47.69h30.46V213H396.66V199.07c-9,11.57-21.73,17.24-38.26,17.24-15.83,0-29.52-5.9-40.86-17.95-11.1-12-16.77-26.92-16.77-44.4s5.67-32.12,16.77-44.16c11.34-12,25-18.18,40.86-18.18,16.53,0,29.28,5.66,38.26,17.24Zm-32.6,139.57q14.18,0,23.38-9.21,9.21-9.56,9.22-24.09c0-9.68-3.08-17.71-9.22-23.85-6.14-6.38-13.93-9.45-23.38-9.45s-17.24,3.07-23.61,9.45c-6.14,6.14-9.21,14.17-9.21,23.85s3.07,17.72,9.21,24.09C346.82,184.19,354.62,187.26,364.06,187.26Z"/>
    <path class="cls-1" d="M535.28,94.92h30.47V213H535.28V199.07c-9.21,11.57-22,17.24-38.5,17.24-15.82,0-29.28-5.9-40.62-17.95-11.1-12-16.76-26.92-16.76-44.4s5.66-32.12,16.76-44.16c11.34-12,24.8-18.18,40.62-18.18,16.54,0,29.29,5.66,38.5,17.24Zm-32.83,92.34q14.18,0,23.38-9.21c6.38-6.37,9.45-14.4,9.45-24.09s-3.07-17.71-9.45-23.85c-6.14-6.38-13.93-9.45-23.38-9.45s-17.24,3.07-23.38,9.45c-6.14,6.14-9.21,14.17-9.21,23.85s3.07,17.72,9.21,24.09Q488.28,187.26,502.45,187.26Z"/>
    <path class="cls-1" d="M609.67,166.48c4,14.88,15.11,22.2,33.3,22.2,11.57,0,20.54-4,26.45-11.81L694,191c-11.57,16.77-28.81,25.27-51.48,25.27-19.61,0-35.19-5.9-47-17.71S577.78,171.91,577.78,154c0-17.71,5.91-32.59,17.48-44.4,11.57-12,26.69-17.94,44.87-17.94,17.24,0,31.65,5.9,42.75,17.94,11.34,12,17,26.69,17,44.4a79.58,79.58,0,0,1-1.18,12.52Zm59.75-23.62C665.88,126.8,654.07,119,640.13,119c-16.29,0-27.39,8.74-30.93,23.85Z"/>
    <path class="cls-1" d="M886.92,140.27V213H856.46V142.39c0-14.17-7.32-22.43-19.84-22.43-13.93,0-22,9.44-22,26.68V213H784.19V142.39c0-14.17-7.32-22.43-19.84-22.43-13.46,0-22.2,9.44-22.2,26.68V213H711.69V94.92h30.46v12.52c7.09-10.63,18-15.82,32.83-15.82,14.41,0,25.27,5.66,32.12,17,7.79-11.34,19.6-17,35.19-17C869.45,91.62,886.92,110.74,886.92,140.27Z"/>
    <path class="cls-1" d="M959.66,216.31c-17.48,0-32.36-5.9-44.4-17.95s-18-26.92-18-44.4,5.9-32.12,18-44.16,26.92-18.18,44.4-18.18,32.35,6.14,44.4,18.18,18.18,26.69,18.18,44.16-6.14,32.36-18.18,44.4S977.13,216.31,959.66,216.31Zm0-29.76c9.21,0,16.76-3.07,22.9-9.21s9.22-13.93,9.22-23.38-3.08-17.24-9.22-23.38-13.69-9.21-22.9-9.21-16.77,3.07-22.91,9.21c-5.91,6.14-9,13.94-9,23.38s3.07,17.24,9,23.38C942.89,183.48,950.45,186.55,959.66,186.55Z"/>
    <path class="cls-1" d="M1131.82,104.6c8.5,8.74,12.75,20.55,12.75,35.9V213H1114.1V144.28c0-15.82-9.21-24.32-23.38-24.32-15.82,0-26,9.68-26,29.28V213h-30.47V94.92h30.47v13.23c7.32-11.1,19.13-16.53,35.19-16.53C1112.92,91.62,1123.55,95.87,1131.82,104.6Z"/>
    <path class="cls-1" d="M1210.69,141.45c17.24,3.54,39.68,11.81,39.44,37.08,0,12-4.48,21.49-13.69,28.1-9,6.38-20.31,9.68-33.78,9.68-24.32,0-40.85-9.44-49.59-28.1l26.45-14.88c3.54,10.15,11.1,15.35,23.14,15.35,10.87,0,16.3-3.31,16.3-10.15,0-6.38-9.45-9.92-21.49-13C1180,161.05,1158,153.73,1158,129.17c0-11.58,4.25-20.79,12.75-27.4,8.74-6.85,19.37-10.15,32.12-10.15,19.13,0,35.66,9,44.87,25l-26,14.17c-3.78-8-10.15-12-18.89-12-7.79,0-13.7,3.78-13.7,9.69C1189.2,134.83,1198.65,138.38,1210.69,141.45Z"/>
    <g id="ewECUF.tif">
        <path d="M215.66,38.09c11.93.21,17.73,9.51,12.5,20.2a66.9,66.9,0,0,1-9.29,13.45c-4.63,5.51-4.61,5.56-.28,11.78,20.65,29.64,21.15,61.58,10.86,94.75-1.14,3.66-2.73,7.25-6.42,8.83-5,2.16-6.56,6.36-7.73,11.06a43.11,43.11,0,0,1-2.25,6.75c-3.15,7.33-7.49,13.19-16.71,12.15-2.34-.26-3.51,1.09-5.16,2.43-7.77,6.37-11.64,6.72-20.23,1.45-2.83-1.73-4.11-1.78-6.85.37-9.49,7.44-18.48,5.78-25.14-4.33a116.57,116.57,0,0,1-7.45-13.39c-1.93-4-4.51-5.76-9-4.45a45.12,45.12,0,0,1-14.22,1.37c-7.65-.25-12.78-3.29-14.3-10.7-1.73-8.42-6.1-14.1-13-18.61a34.76,34.76,0,0,1-5.94-5.64c-10.74-11.56-16.09-25.43-15.43-41,.43-10.16,2.55-20.37,7.79-29.37,2.12-3.64.94-5.6-1.63-7.8-2.08-1.77-4-3.73-6.14-5.43-5.62-4.49-11.09-9.14-15.68-14.69-4-4.79-5.58-10.2-2.78-16.14s8.32-7.68,14.38-8a28.91,28.91,0,0,1,5,.56A114.13,114.13,0,0,1,94.77,53.9c5.77,2.71,10.21,2.67,16.12,0,19.79-9,40.44-12.09,61.49-4.58,4.24,1.5,7,.54,10.38-1.41,9.55-5.45,19.63-9.47,30-9.79C214.29,38.09,215,38.08,215.66,38.09Zm-6.55,44.82c-4.33-5-4.21-5.31-.33-10.36,2.92-3.79,6.1-7.36,9-11.14a33.66,33.66,0,0,0,3.82-6c3-6.24,0-11-7-10.66-8.59.45-16.57,3.53-24.27,7.23a61.16,61.16,0,0,0-8,4.55c-2.74,1.86-5,2.06-8.36.75-22-8.45-43.57-5.63-64.13,4.85-5.23,2.66-9.05,2.9-14.06.14C85.92,56.83,75,54,64.11,51.23A33.18,33.18,0,0,0,58,50.61c-4.2-.29-8.53-.35-10.6,4.21-1.93,4.25,1.18,7.08,3.76,9.7,3.6,3.64,7.45,7,11.23,10.48,4,3.68,8,7.39,12.2,10.94,3.16,2.7,3.25,5.22,1.1,8.84a64.86,64.86,0,0,0-7.68,21c-3.7,19,1.64,35,15.64,48.15a38,38,0,0,0,6.27,5.25c5.77,3.41,8.21,8.69,9.75,14.88,2.21,8.87,4.41,9.91,13.83,9,21.14-2,19.62-2.39,27.76,14.09a42.38,42.38,0,0,0,4.27,7c5.08,6.62,11,6.26,15.83-.35,1.68-2.3.81-7.17,4.75-6.74,2.11.23,4,3.44,5.79,5.49,5.65,6.5,13.56,6.76,17.2-3.32,1.37-3.78,1.95-3.38,4.75-.78,3.61,3.38,6.44,2.61,9.61-1.09,3.7-4.3,4.65-9.8,6.08-15,1.13-4.09,2.24-7.55,6.76-9.3,4-1.55,5.81-5.19,7.22-9.34a108.77,108.77,0,0,0,5.5-30.17C228.72,119.14,223.37,99.52,209.11,82.91Z"/>
        <path class="cls-1" d="M216.19,167.07c-1.27,4.22-2.65,8.42-7.6,10-4.28,1.39-6.67,4.34-6.87,9.08a22.33,22.33,0,0,1-1.53,5.9c-.3.89-.82,2.08-1.55,2.38-1.9.76-1.85-1.27-2.6-2.22-4.57-5.78-8.07-5.49-11,1.15-1.51,3.4-2.26,7.13-3.59,10.62-.91,2.4-2.54,3.08-4.45.81-2.85-3.4-5.53-7-8.5-10.24-4.94-5.47-8.41-4.7-10.87,2.34-1,2.88-1.57,5.93-2.68,8.77-.86,2.21-2.59,2.05-3.69.19-2.25-3.81-4.12-7.85-6.39-11.63-6-9.92-12.56-12.88-24-11.14-3,.46-6.09.73-9.14,1a3,3,0,0,1-3.54-2.76c-1.45-9.44-7.35-15.39-14.73-21-18.25-14-21.73-33.43-12.84-54.84,1-2.35,1.85-4.19,5.11-3.25,7.28,2.1,14.33-.11,20.66-3.07,11.43-5.36,15.31-17.09,7.63-24.9-2.16-2.19-1.38-3.5.81-4.5,16.51-7.51,33.38-11.42,51.39-5.53,32.73,10.71,53,39.38,53.22,78.29A80.47,80.47,0,0,1,216.19,167.07Zm-63.81-3.58c8.39-3.32,12.42-10,10.51-18.54-3.25-14.62-10.14-27.34-21.32-37.46-9-8.17-19.78-7.88-26.68,1.45-9.3,12.57-12.22,26.92-9.14,42.39,1.1,5.56,4.35,8.95,9.67,10.73,7.14,2.39,14.38,4,21.94,3.56A34.29,34.29,0,0,0,152.38,163.49Zm59.44-46c-1.62-4.8-4.59-8.59-9.92-9-4.57-.36-7.39,2.94-9.6,6.49-5.49,8.79-8.86,18.24-8.4,28.77.42,9.78,8,15.38,17.45,12.86a30.58,30.58,0,0,0,5.68-2.19c5.24-2.64,8.73-6.39,7.84-12.85a49.1,49.1,0,0,1,0-6.07C215.24,129.92,213.9,123.64,211.82,117.5Zm-23.11,50.09c-3-6.13-9-10.71-12.91-9.9s-8,7.38-8.52,13.86a16,16,0,0,0,0,4c.52,3,3,4.28,6,3.38s5.43-4.52,9.2-2.27C189.51,177.06,191.76,173.76,188.71,167.59Z"/>
        <path class="cls-1" d="M187.16,64.2a9.71,9.71,0,0,0,1.4,1.63c2.18,1.61,4.41,3.15,6.64,4.7,1.64,1.13,3.26,1,4.48-.54,3.36-4.25,6.63-8.57,9.88-12.9.31-.4.5-1.37.27-1.6a2.19,2.19,0,0,0-1.78-.59A67,67,0,0,0,188.47,63,10.26,10.26,0,0,0,187.16,64.2Z"/>
    </g>
    <path class="cls-1" d="M63.73,61.65c.5-.53,2-.54,2.84-.28a179.7,179.7,0,0,1,26.54,9.91,72.12,72.12,0,0,1,12.1,7.46c4,3,3.82,7.49-.33,10.11-4,2.51-8.31,4.64-14.44,4.65a1.77,1.77,0,0,1-2-1.61,1.73,1.73,0,0,1,.12-.82s-1.26-7.54-4.25-9.61h0c-.68-.55-1.4-1.18-2.2-1.93-2.71-2.55-5.64-4.87-8.41-7.35-3-2.72-6-5.5-9-8.29C64.07,63.29,63,62.43,63.73,61.65Z"/>
</svg>
