<svg id="Layer_1" data-name="Layer 1" xmlns="http://www.w3.org/2000/svg" viewBox="0 0 300 300"><defs><style>.cls-1{fill:#136f63;}</style></defs><g id="ewECUF.tif"><path d="M227.71,56.09c11.93.21,17.74,9.51,12.51,20.2a67.31,67.31,0,0,1-9.29,13.45c-4.63,5.51-4.61,5.56-.28,11.78,20.65,29.64,21.15,61.58,10.85,94.75-1.13,3.66-2.72,7.25-6.41,8.83-5,2.16-6.57,6.36-7.73,11.06a43.11,43.11,0,0,1-2.25,6.75c-3.15,7.33-7.49,13.19-16.72,12.15-2.34-.26-3.51,1.09-5.15,2.43-7.77,6.37-11.64,6.72-20.24,1.45-2.82-1.73-4.11-1.78-6.84.37-9.49,7.44-18.48,5.78-25.15-4.33a118,118,0,0,1-7.44-13.39c-1.93-4-4.51-5.76-9-4.45a45.14,45.14,0,0,1-14.22,1.37c-7.65-.25-12.78-3.29-14.3-10.7-1.73-8.42-6.1-14.1-13-18.61a35.07,35.07,0,0,1-5.93-5.64c-10.74-11.56-16.09-25.43-15.43-41,.43-10.16,2.54-20.37,7.79-29.37,2.12-3.64.94-5.6-1.64-7.8-2.08-1.77-4-3.73-6.14-5.43-5.61-4.49-11.09-9.14-15.68-14.69-4-4.79-5.57-10.2-2.78-16.14s8.32-7.68,14.39-8a28.91,28.91,0,0,1,5,.56A114.13,114.13,0,0,1,106.83,71.9c5.76,2.71,10.21,2.67,16.12,0,19.78-9.05,40.44-12.09,61.49-4.58,4.23,1.5,6.95.54,10.38-1.41,9.55-5.45,19.63-9.47,30-9.79C226.35,56.09,227,56.08,227.71,56.09Zm-6.55,44.82c-4.32-5-4.2-5.31-.32-10.36,2.91-3.79,6.1-7.36,9-11.14a33.06,33.06,0,0,0,3.81-6c3-6.24,0-11-7-10.66-8.59.45-16.58,3.53-24.27,7.23a61.16,61.16,0,0,0-8,4.55c-2.75,1.86-5,2.06-8.36.75-22-8.45-43.58-5.63-64.14,4.85-5.22,2.66-9,2.9-14,.14C98,74.83,87.05,72,76.17,69.23a33.36,33.36,0,0,0-6.09-.62c-4.21-.29-8.53-.35-10.61,4.21-1.93,4.25,1.19,7.08,3.77,9.7,3.6,3.64,7.45,7,11.23,10.48,4,3.68,8,7.39,12.19,10.94,3.16,2.7,3.26,5.22,1.1,8.84a65.32,65.32,0,0,0-7.68,21c-3.69,19,1.64,35,15.65,48.15a37.56,37.56,0,0,0,6.27,5.25c5.77,3.41,8.21,8.69,9.75,14.88,2.2,8.87,4.4,9.91,13.82,9,21.15-2,19.63-2.39,27.77,14.09a41.71,41.71,0,0,0,4.27,7c5.08,6.62,11,6.26,15.83-.35,1.68-2.3.8-7.17,4.75-6.74,2.11.23,4,3.44,5.79,5.49,5.65,6.5,13.56,6.76,17.2-3.32,1.36-3.78,1.95-3.38,4.74-.78,3.62,3.38,6.45,2.61,9.62-1.09,3.7-4.3,4.64-9.8,6.08-15,1.12-4.09,2.24-7.55,6.76-9.3,4-1.55,5.81-5.19,7.22-9.34a108.77,108.77,0,0,0,5.5-30.17C240.78,137.14,235.42,117.52,221.16,100.91Z"/><path class="cls-1" d="M228.25,185.07c-1.27,4.22-2.65,8.42-7.6,10-4.28,1.39-6.68,4.34-6.87,9.08a22,22,0,0,1-1.54,5.9c-.29.89-.81,2.08-1.54,2.38-1.9.76-1.85-1.27-2.6-2.22-4.57-5.78-8.08-5.49-11,1.15-1.5,3.4-2.25,7.13-3.58,10.62-.91,2.4-2.54,3.08-4.45.81-2.85-3.4-5.53-7-8.5-10.24-4.94-5.47-8.41-4.7-10.87,2.34-1,2.88-1.57,5.93-2.68,8.77-.87,2.21-2.59,2.05-3.7.19-2.25-3.81-4.11-7.85-6.39-11.63-6-9.92-12.55-12.88-24-11.14-3,.46-6.09.73-9.15,1a2.94,2.94,0,0,1-3.53-2.76c-1.46-9.44-7.35-15.39-14.73-21-18.25-14-21.73-33.43-12.84-54.84,1-2.35,1.85-4.19,5.11-3.25,7.28,2.1,14.33-.11,20.65-3.07,11.44-5.36,15.31-17.09,7.63-24.9-2.15-2.19-1.37-3.5.82-4.5,16.51-7.51,33.38-11.42,51.39-5.53,32.73,10.71,53,39.38,53.22,78.29A80.78,80.78,0,0,1,228.25,185.07Zm-63.81-3.58c8.38-3.32,12.42-10,10.51-18.54-3.25-14.62-10.14-27.34-21.32-37.46-9-8.17-19.78-7.88-26.68,1.45-9.31,12.57-12.23,26.92-9.15,42.39,1.11,5.56,4.36,8.95,9.68,10.73,7.14,2.39,14.38,4,21.94,3.56A34.31,34.31,0,0,0,164.44,181.49Zm59.44-46c-1.63-4.8-4.59-8.59-9.92-9-4.57-.36-7.39,2.94-9.61,6.49-5.49,8.79-8.85,18.24-8.39,28.77.42,9.78,8,15.38,17.45,12.86a30.22,30.22,0,0,0,5.67-2.19c5.24-2.64,8.74-6.39,7.84-12.85a51.53,51.53,0,0,1,0-6.07C227.3,147.92,226,141.64,223.88,135.5Zm-23.11,50.09c-3-6.13-9-10.71-12.91-9.9s-8,7.38-8.52,13.86a16,16,0,0,0,0,4c.52,3,3,4.28,5.95,3.38s5.43-4.52,9.21-2.27C201.57,195.06,203.81,191.76,200.77,185.59Z"/><path class="cls-1" d="M199.21,82.2a10.19,10.19,0,0,0,1.4,1.63c2.19,1.61,4.42,3.15,6.65,4.7a3,3,0,0,0,4.47-.54c3.36-4.25,6.64-8.57,9.89-12.9.31-.4.5-1.37.27-1.6a2.2,2.2,0,0,0-1.79-.59A67.12,67.12,0,0,0,200.52,81,11.83,11.83,0,0,0,199.21,82.2Z"/></g><path class="cls-1" d="M75.79,79.65c.5-.53,1.95-.54,2.83-.28a179.28,179.28,0,0,1,26.54,9.91,71.81,71.81,0,0,1,12.11,7.46c4,3,3.82,7.49-.33,10.11-4,2.51-8.31,4.64-14.44,4.65a1.77,1.77,0,0,1-2-1.61,1.73,1.73,0,0,1,.12-.82s-1.27-7.54-4.25-9.61h0c-.67-.55-1.39-1.18-2.19-1.93-2.72-2.55-5.64-4.87-8.42-7.35-3-2.72-6-5.5-9-8.29C76.12,81.29,75.05,80.43,75.79,79.65Z"/></svg>