<svg xmlns="http://www.w3.org/2000/svg" width="202.366" height="31.327" viewBox="0 0 202.366 31.327">
  <g id="daemons_logo_white_2" transform="translate(-39.766 -38.086)">
    <path id="Path_62" data-name="Path 62" d="M316.763,47.69h5.08V75.261h-5.08V72.937a7.594,7.594,0,0,1-6.381,2.875,9.025,9.025,0,0,1-6.815-2.994,11.148,11.148,0,0,1,0-14.77,9.085,9.085,0,0,1,6.815-3.032,7.585,7.585,0,0,1,6.381,2.875Zm-5.437,23.278a5.28,5.28,0,0,0,3.9-1.536,5.563,5.563,0,0,0,1.538-4.018,5.4,5.4,0,0,0-1.538-3.978,5.162,5.162,0,0,0-3.9-1.576,5.307,5.307,0,0,0-3.938,1.576,5.4,5.4,0,0,0-1.536,3.978,5.559,5.559,0,0,0,1.536,4.018,5.435,5.435,0,0,0,3.938,1.536Z" transform="translate(-217.474 -8.002)" fill="#fff" stroke="#000" stroke-width="1"/>
    <path id="Path_63" data-name="Path 63" d="M455.391,92.17h5.082v19.693h-5.082v-2.323a7.723,7.723,0,0,1-6.421,2.875,8.944,8.944,0,0,1-6.775-2.994,11.153,11.153,0,0,1,0-14.77,9.011,9.011,0,0,1,6.775-3.032,7.709,7.709,0,0,1,6.421,2.875Zm-5.475,15.4a5.28,5.28,0,0,0,3.9-1.536,5.427,5.427,0,0,0,1.576-4.018,5.277,5.277,0,0,0-1.576-3.978,5.612,5.612,0,0,0-7.8,0,5.4,5.4,0,0,0-1.536,3.978,5.559,5.559,0,0,0,1.536,4.018A5.283,5.283,0,0,0,449.915,107.571Z" transform="translate(-332.983 -44.605)" fill="#fff" stroke="#000" stroke-width="1"/>
    <path id="Path_64" data-name="Path 64" d="M583.1,104.139c.667,2.482,2.52,3.7,5.554,3.7a5.226,5.226,0,0,0,4.411-1.97l4.1,2.357a9.781,9.781,0,0,1-8.586,4.215,10.572,10.572,0,0,1-7.839-2.954,10.077,10.077,0,0,1-2.959-7.432,10.193,10.193,0,0,1,2.915-7.405,9.967,9.967,0,0,1,7.483-2.992,9.285,9.285,0,0,1,7.13,2.992,10.339,10.339,0,0,1,2.835,7.405,13.272,13.272,0,0,1-.2,2.088Zm9.965-3.939a4.761,4.761,0,0,0-4.885-3.979,4.911,4.911,0,0,0-5.159,3.978Z" transform="translate(-448.284 -44.639)" fill="#fff" stroke="#000" stroke-width="1"/>
    <path id="Path_65" data-name="Path 65" d="M740.915,99.734v12.13h-5.08V100.087c0-2.363-1.221-3.741-3.309-3.741-2.323,0-3.669,1.574-3.669,4.45v11.068h-5.075V100.087c0-2.363-1.221-3.741-3.309-3.741-2.245,0-3.7,1.574-3.7,4.45v11.068h-5.08V92.17h5.08v2.088a6.1,6.1,0,0,1,5.475-2.638,5.835,5.835,0,0,1,5.357,2.835,6.658,6.658,0,0,1,5.869-2.835C738,91.62,740.915,94.809,740.915,99.734Z" transform="translate(-559.86 -44.605)" fill="#fff" stroke="#000" stroke-width="1"/>
    <path id="Path_66" data-name="Path 66" d="M907.667,112.416a10.24,10.24,0,0,1-10.407-10.4,9.949,9.949,0,0,1,3-7.365,10.558,10.558,0,0,1,14.81,0,10.379,10.379,0,0,1-7.405,17.764Zm0-4.963a5.163,5.163,0,0,0,3.819-1.536,5.713,5.713,0,0,0,0-7.8,5.518,5.518,0,0,0-7.64,0,5.815,5.815,0,0,0,0,7.8A5.166,5.166,0,0,0,907.667,107.453Z" transform="translate(-714.481 -44.605)" fill="#fff" stroke="#000" stroke-width="1"/>
    <path id="Path_67" data-name="Path 67" d="M1050.523,93.785a8.181,8.181,0,0,1,2.126,5.987v12.092h-5.082V100.4c0-2.638-1.536-4.056-3.9-4.056-2.638,0-4.336,1.614-4.336,4.883v10.634h-5.082V92.17h5.082v2.207c1.221-1.851,3.191-2.757,5.869-2.757A6.988,6.988,0,0,1,1050.523,93.785Z" transform="translate(-828.623 -44.605)" fill="#fff" stroke="#000" stroke-width="1"/>
    <path id="Path_68" data-name="Path 68" d="M1162.68,99.931c2.876.59,6.618,1.97,6.578,6.184a5.436,5.436,0,0,1-2.283,4.687,9.525,9.525,0,0,1-5.634,1.614c-4.056,0-6.813-1.574-8.271-4.687l4.411-2.482a3.665,3.665,0,0,0,3.859,2.56c1.813,0,2.719-.552,2.719-1.693,0-1.064-1.576-1.654-3.584-2.168-2.914-.747-6.583-1.968-6.583-6.064a5.483,5.483,0,0,1,2.126-4.57,8.99,8.99,0,0,1,12.841,2.477l-4.336,2.363a3.252,3.252,0,0,0-3.15-2c-1.3,0-2.285.63-2.285,1.616C1159.1,98.827,1160.672,99.419,1162.68,99.931Z" transform="translate(-927.627 -44.605)" fill="#fff" stroke="#000" stroke-width="1"/>
    <g id="ewECUF.tif" transform="translate(39.765 38.086)">
      <path id="Path_69" data-name="Path 69" d="M69.1,38.087a2.189,2.189,0,0,1,2.085,3.369A11.158,11.158,0,0,1,69.637,43.7c-.772.919-.769.927-.047,1.965,3.444,4.943,3.527,10.27,1.811,15.8a2.119,2.119,0,0,1-1.071,1.473,2.347,2.347,0,0,0-1.289,1.845,7.189,7.189,0,0,1-.375,1.126c-.525,1.223-1.249,2.2-2.787,2.026-.39-.043-.585.182-.861.405-1.3,1.062-1.941,1.121-3.374.242a.8.8,0,0,0-1.142.062c-1.583,1.241-3.082.964-4.193-.722a19.441,19.441,0,0,1-1.243-2.233,1.135,1.135,0,0,0-1.5-.742,7.525,7.525,0,0,1-2.372.228,2.179,2.179,0,0,1-2.385-1.785,4.625,4.625,0,0,0-2.168-3.1,5.8,5.8,0,0,1-.991-.941,9.208,9.208,0,0,1-2.573-6.838,10.531,10.531,0,0,1,1.3-4.9.874.874,0,0,0-.272-1.3c-.347-.3-.667-.622-1.024-.906a17.414,17.414,0,0,1-2.615-2.45A2.378,2.378,0,0,1,40,40.262a2.52,2.52,0,0,1,2.4-1.334,4.822,4.822,0,0,1,.834.093,19.035,19.035,0,0,1,5.706,1.7,2.853,2.853,0,0,0,2.689,0,13.283,13.283,0,0,1,10.255-.764,1.835,1.835,0,0,0,1.731-.235,10.946,10.946,0,0,1,5-1.633C68.873,38.087,68.991,38.085,69.1,38.087Zm-1.092,7.475c-.722-.834-.7-.886-.055-1.728.487-.632,1.017-1.228,1.5-1.858a5.614,5.614,0,0,0,.637-1c.5-1.041,0-1.835-1.167-1.778A10.688,10.688,0,0,0,64.877,40.4a10.2,10.2,0,0,0-1.334.759,1.319,1.319,0,0,1-1.394.125,12.706,12.706,0,0,0-10.7.809,2.2,2.2,0,0,1-2.345.023,21.953,21.953,0,0,0-5.282-1.841,5.534,5.534,0,0,0-1.019-.1c-.7-.048-1.423-.058-1.768.7-.322.709.2,1.181.627,1.618.6.607,1.243,1.167,1.873,1.748.667.614,1.334,1.233,2.035,1.825a.988.988,0,0,1,.183,1.474,10.817,10.817,0,0,0-1.281,3.5,8.227,8.227,0,0,0,2.608,8.031,6.338,6.338,0,0,0,1.046.876,3.634,3.634,0,0,1,1.626,2.482c.369,1.479.736,1.653,2.307,1.5,3.526-.334,3.272-.4,4.63,2.35A7.068,7.068,0,0,0,57.4,67.45c.847,1.1,1.835,1.044,2.64-.058.28-.384.135-1.2.792-1.124.352.038.667.574.966.916.942,1.084,2.262,1.127,2.869-.554.228-.63.325-.564.792-.13.6.564,1.074.435,1.6-.182a6.041,6.041,0,0,0,1.014-2.5c.188-.682.374-1.259,1.127-1.551a2.241,2.241,0,0,0,1.2-1.558,18.141,18.141,0,0,0,.917-5.032C71.279,51.6,70.387,48.332,68.009,45.562Z" transform="translate(-39.765 -38.086)" fill="#ebefef"/>
      <path id="Path_70" data-name="Path 70" d="M99.326,79c-.212.7-.442,1.4-1.268,1.668a1.531,1.531,0,0,0-1.146,1.514,3.724,3.724,0,0,1-.255.984c-.05.148-.137.347-.259.4-.317.127-.309-.212-.434-.37-.762-.964-1.346-.916-1.835.192-.252.567-.377,1.189-.6,1.771-.152.4-.424.514-.742.135-.475-.567-.922-1.167-1.418-1.708-.824-.912-1.4-.784-1.813.39-.167.48-.262.989-.447,1.463-.143.369-.432.342-.615.032-.375-.635-.687-1.309-1.066-1.94a3.427,3.427,0,0,0-4-1.858c-.5.077-1.016.122-1.524.167a.5.5,0,0,1-.59-.46,5.406,5.406,0,0,0-2.457-3.5c-3.044-2.335-3.624-5.575-2.141-9.146.167-.392.309-.7.852-.542a4.875,4.875,0,0,0,3.446-.512c1.906-.894,2.553-2.85,1.273-4.153-.36-.365-.23-.584.135-.751,2.754-1.253,5.567-1.9,8.571-.922,5.459,1.786,8.839,6.568,8.876,13.057A13.42,13.42,0,0,1,99.326,79Zm-10.642-.6a2.549,2.549,0,0,0,1.753-3.092,11.612,11.612,0,0,0-3.556-6.248c-1.5-1.363-3.3-1.314-4.45.242a8.621,8.621,0,0,0-1.524,7.07,2.225,2.225,0,0,0,1.613,1.79,9.69,9.69,0,0,0,3.659.594A5.719,5.719,0,0,0,88.684,78.407ZM98.6,70.735a1.916,1.916,0,0,0-1.654-1.5c-.762-.06-1.233.49-1.6,1.082a8.249,8.249,0,0,0-1.4,4.8,2.189,2.189,0,0,0,2.91,2.145,5.1,5.1,0,0,0,.947-.365,1.97,1.97,0,0,0,1.308-2.143,8.188,8.188,0,0,1,0-1.012,8.041,8.041,0,0,0-.509-3Zm-3.854,8.354c-.5-1.022-1.5-1.786-2.153-1.651s-1.334,1.231-1.421,2.312a2.668,2.668,0,0,0,0,.667.715.715,0,0,0,1,.564c.5-.15.906-.754,1.534-.379,1.172.068,1.548-.482,1.039-1.511Z" transform="translate(-69.902 -57.492)" fill="#136f63"/>
      <path id="Path_71" data-name="Path 71" d="M187.16,56.437a1.621,1.621,0,0,0,.233.272c.364.269.736.525,1.107.784a.5.5,0,0,0,.747-.09c.56-.709,1.106-1.429,1.648-2.151.052-.067.083-.228.045-.267a.365.365,0,0,0-.3-.1,11.174,11.174,0,0,0-3.266,1.351A1.71,1.71,0,0,0,187.16,56.437Z" transform="translate(-162.577 -52.082)" fill="#136f63"/>
    </g>
    <path id="Path_72" data-name="Path 72" d="M63.525,61.278A.576.576,0,0,1,64,61.231a29.97,29.97,0,0,1,4.426,1.653,12.028,12.028,0,0,1,2.018,1.244.952.952,0,0,1-.055,1.686,4.3,4.3,0,0,1-2.408.776.3.3,0,0,1-.334-.269.288.288,0,0,1,.02-.137s-.21-1.258-.709-1.6h0c-.113-.092-.233-.2-.367-.322-.452-.425-.941-.812-1.4-1.226-.5-.454-1-.917-1.5-1.383C63.582,61.552,63.4,61.408,63.525,61.278Z" transform="translate(-19.763 -19.262)" fill="#136f63"/>
  </g>
</svg>